<?xml version="1.0" standalone="no"?>
<!DOCTYPE svg PUBLIC "-//W3C//DTD SVG 1.1//EN" "http://www.w3.org/Graphics/SVG/1.1/DTD/svg11.dtd" >
<svg xmlns="http://www.w3.org/2000/svg">
<metadata>Generated by IcoMoon</metadata>
<defs>
<font id="icomoon" horiz-adv-x="1024">
<font-face units-per-em="1024" ascent="960" descent="-64" />
<missing-glyph horiz-adv-x="1024" />
<glyph unicode="&#x20;" horiz-adv-x="512" d="" />
<glyph unicode="&#xe900;" horiz-adv-x="630" d="M0 172.308v-236.308h630.154v236.308h-630.154z" />
<glyph unicode="&#xe901;" horiz-adv-x="630" d="M0 408.615v-236.308h630.154v236.308h-630.154z" />
<glyph unicode="&#xe902;" horiz-adv-x="630" d="M0 644.923v-236.308h630.154v236.308h-630.154z" />
<glyph unicode="&#xe903;" horiz-adv-x="630" d="M0 881.231v-236.308h630.154v236.308h-630.154z" />
<glyph unicode="&#xe904;" horiz-adv-x="630" d="M157.538 960v-78.769h315.077v78.769h-315.077z" />
<glyph unicode="&#xe905;" glyph-name="bottom" horiz-adv-x="2048" d="M0 960l1024-1024 1024 1024h-2048z" />
<glyph unicode="&#xe906;" glyph-name="confirm" d="M972.8 192v256c30.72 51.2 51.2 112.64 51.2 174.080 0 189.44-148.48 337.92-332.8 337.92-189.44 0-348.16-158.72-332.8-358.4h-256c-56.32 0-102.4-46.080-102.4-102.4v-460.8c0-56.32 46.080-102.4 102.4-102.4h768c56.32 0 102.4 46.080 102.4 102.4v153.6zM691.2 857.6c128 0 230.4-102.4 230.4-230.4 0-122.88-102.4-230.4-230.4-230.4s-230.4 107.52-230.4 230.4c0 128 102.4 230.4 230.4 230.4zM384 499.2c10.24-20.48 15.36-40.96 30.72-56.32 61.44-92.16 163.84-148.48 276.48-148.48 66.56 0 128 20.48 179.2 51.2v-102.4h-768v256h281.6zM102.4 38.4v102.4h768v-102.4h-768zM593.92 514.56c20.48-20.48 56.32-20.48 76.8 0l138.24 153.6c20.48 20.48 15.36 51.2-5.12 71.68s-51.2 15.36-71.68-5.12l-97.28-112.64-20.48 20.48c-20.48 20.48-51.2 25.6-71.68 5.12s-25.6-51.2-5.12-71.68l56.32-61.44z" />
<glyph unicode="&#xe907;" glyph-name="downloud" horiz-adv-x="1078" d="M916.211 690.526h-107.789c-32.337 0-53.895-21.558-53.895-53.895s21.558-53.895 53.895-53.895h107.789v-323.368h-808.421v323.368h43.116c32.337 0 53.895 21.558 53.895 53.895s-21.558 53.895-53.895 53.895h-43.116c-59.284 0-107.789-48.505-107.789-107.789v-538.947c0-59.284 48.505-107.789 107.789-107.789h808.421c59.284 0 107.789 48.505 107.789 107.789v538.947c0 59.284-48.505 107.789-107.789 107.789zM107.789 43.789v107.789h808.421v-107.789h-808.421zM1024 960h-431.158c-91.621 0-161.684-70.063-161.684-161.684v-301.811l-70.063 70.063c-21.558 21.558-53.895 21.558-75.453 0s-21.558-53.895 0-75.453l161.684-161.684c21.558-21.558 53.895-21.558 75.453 0l161.684 161.684c21.558 21.558 21.558 53.895 0 75.453s-53.895 21.558-75.453 0l-70.063-70.063v301.811c0 32.337 21.558 53.895 53.895 53.895h431.158c32.337 0 53.895 21.558 53.895 53.895s-21.558 53.895-53.895 53.895z" />
<glyph unicode="&#xe908;" glyph-name="euro" horiz-adv-x="964" d="M276.215 508.054c-1.287-12.345-1.947-24.877-1.947-37.562 0-12.488 0.639-24.826 1.887-36.984h444.084v-131.549h-403.893c60.271-112.73 179.119-189.428 315.877-189.428 93.563 0 178.604 35.804 242.405 94.575l89.124-96.762c-87.136-80.264-203.674-129.361-331.529-129.361-211.121 0-391.029 133.656-459.72 320.976h-172.504v131.549h144.094c-0.912 12.208-1.376 24.542-1.376 36.984 0 12.638 0.479 25.164 1.42 37.562h-144.137v131.55h172.716c68.85 187.012 248.605 320.396 459.507 320.396 127.855 0 244.387-49.095 331.529-129.362l-89.124-96.758c-63.801 58.769-148.841 94.57-242.405 94.57-136.523 0-255.199-76.435-315.567-188.845h403.583v-131.55h-444.024z" />
<glyph unicode="&#xe909;" glyph-name="gear" d="M892.416 397.824c2.048 16.384 3.584 32.768 3.584 50.176s-1.536 33.792-3.584 50.176l108.032 84.48c9.728 7.68 12.288 21.504 6.144 32.768l-102.4 177.152c-4.608 8.192-13.312 12.8-22.528 12.8-3.072 0-6.144-0.512-8.704-1.536l-127.488-51.2c-26.624 20.48-55.296 37.376-86.528 50.176l-19.456 135.68c-1.536 12.288-12.288 21.504-25.088 21.504h-204.801c-12.8 0-23.552-9.216-25.088-21.504l-19.456-135.68c-31.232-12.8-59.904-30.208-86.528-50.176l-127.488 51.2c-3.072 1.024-6.144 1.536-9.216 1.536-8.704 0-17.408-4.608-22.016-12.8l-102.4-177.152c-6.656-11.264-3.584-25.088 6.144-32.768l108.032-84.48c-2.048-16.384-3.584-33.28-3.584-50.176s1.536-33.792 3.584-50.176l-108.032-84.48c-9.728-7.68-12.288-21.504-6.144-32.768l102.4-177.152c4.608-8.192 13.312-12.8 22.528-12.8 3.072 0 6.144 0.512 8.704 1.536l127.488 51.2c26.624-20.48 55.296-37.376 86.528-50.176l19.456-135.68c1.536-12.288 12.288-21.504 25.088-21.504h204.801c12.8 0 23.552 9.216 25.088 21.504l19.456 135.68c31.232 12.8 59.904 30.208 86.528 50.176l127.488-51.2c3.072-1.024 6.144-1.536 9.216-1.536 8.704 0 17.408 4.608 22.016 12.8l102.4 177.152c6.144 11.264 3.584 25.088-6.144 32.768l-108.032 84.48zM791.040 485.376c2.048-15.872 2.56-26.624 2.56-37.376s-1.024-22.016-2.56-37.376l-7.168-57.856 45.568-35.84 55.296-43.008-35.84-61.952-65.024 26.112-53.248 21.504-46.080-34.816c-22.016-16.384-43.008-28.672-64-37.376l-54.272-22.016-8.192-57.856-10.24-69.12h-71.681l-9.728 69.12-8.192 57.856-54.272 22.016c-22.016 9.216-42.496 20.992-62.976 36.352l-46.592 35.84-54.272-22.016-65.024-26.112-35.84 61.952 55.296 43.008 45.568 35.84-7.168 57.856c-1.536 15.872-2.56 27.648-2.56 37.888s1.024 22.016 2.56 37.376l7.168 57.856-45.568 35.84-55.296 43.008 35.84 61.952 65.024-26.112 53.248-21.504 46.080 34.816c22.016 16.384 43.008 28.672 64 37.376l54.272 22.016 8.192 57.856 10.24 69.12h71.169l9.728-69.12 8.192-57.856 54.272-22.016c22.016-9.216 42.496-20.992 62.976-36.352l46.592-35.84 54.272 22.016 65.024 26.112 35.84-61.952-54.784-43.52-45.568-35.84 7.168-57.856zM511.999 652.8c-113.152 0-204.8-91.648-204.8-204.8s91.648-204.8 204.8-204.8c113.153 0 204.801 91.648 204.801 204.8s-91.648 204.8-204.801 204.8zM511.999 345.6c-56.32 0-102.4 46.080-102.4 102.4s46.080 102.4 102.4 102.4c56.321 0 102.401-46.080 102.401-102.4s-46.080-102.4-102.401-102.4z" />
<glyph unicode="&#xe90a;" glyph-name="graf" horiz-adv-x="956" d="M0 639.147h204.8v-669.013h-204.8v669.013zM382.293 925.867h191.147v-955.733h-191.147v955.733zM764.587 379.733h191.147v-409.6h-191.147v409.6z" />
<glyph unicode="&#xe90b;" glyph-name="home" horiz-adv-x="1205" d="M602.353 797.967l301.176-271.059v-470.438h-120.471v361.412h-361.412v-361.412h-120.471v470.438l301.176 271.059zM602.353 960l-602.353-542.118h180.706v-481.882h361.412v361.412h120.471v-361.412h361.412v481.882h180.706l-602.353 542.118z" />
<glyph unicode="&#xe90c;" glyph-name="import" d="M563.2 601.6h-102.4v102.4h102.4v-102.4zM563.2 192h-102.4v307.2h102.4v-307.2zM512.512-64c282.624 0 511.488 229.376 511.488 512s-228.864 512-511.488 512c-283.136 0-512.512-229.376-512.512-512s229.376-512 512.512-512zM512 857.6c226.304 0 409.6-183.296 409.6-409.6s-183.296-409.6-409.6-409.6c-226.304 0-409.6 183.296-409.6 409.6s183.296 409.6 409.6 409.6z" />
<glyph unicode="&#xe90d;" glyph-name="man" d="M512 832c70.4 0 128-57.6 128-128s-57.6-128-128-128c-70.4 0-128 57.6-128 128s57.6 128 128 128zM512 256c172.8 0 371.2-82.56 384-128v-64h-768v63.36c12.8 46.080 211.2 128.64 384 128.64zM512 960c-141.44 0-256-114.56-256-256s114.56-256 256-256c141.44 0 256 114.56 256 256s-114.56 256-256 256zM512 384c-170.88 0-512-85.76-512-256v-192h1024v192c0 170.24-341.12 256-512 256z" />
<glyph unicode="&#xe90e;" glyph-name="more" horiz-adv-x="4096" d="M512 960c-281.6 0-512-230.4-512-512s230.4-512 512-512c281.6 0 512 230.4 512 512s-230.4 512-512 512zM3584 960c-281.6 0-512-230.4-512-512s230.4-512 512-512c281.6 0 512 230.4 512 512s-230.4 512-512 512zM2048 960c-281.6 0-512-230.4-512-512s230.4-512 512-512c281.6 0 512 230.4 512 512s-230.4 512-512 512z" />
<glyph unicode="&#xe90f;" glyph-name="notifanction" d="M512-64c56.32 0 102.4 46.080 102.4 102.4h-204.798c0-56.32 46.080-102.4 102.398-102.4zM819.2 243.2v256c0 157.184-83.456 288.768-230.4 323.584v34.816c0 42.496-34.304 76.8-76.8 76.8-42.494 0-76.798-34.304-76.798-76.8v-34.816c-146.432-34.816-230.4-165.888-230.4-323.584v-256l-102.4-102.4v-51.2h819.198v51.2l-102.4 102.4zM716.8 192h-409.598v307.2c0 126.976 77.312 230.4 204.798 230.4 127.488 0 204.8-103.424 204.8-230.4v-307.2zM285.698 853.504l-73.216 73.216c-122.88-93.696-203.776-238.080-210.944-401.92h102.4c7.68 135.68 77.312 254.464 181.76 328.704zM920.064 524.8h102.4c-7.68 163.84-88.576 308.224-210.944 401.92l-72.704-73.216c103.424-74.24 173.568-193.024 181.248-328.704z" />
<glyph unicode="&#xe910;" glyph-name="pen" horiz-adv-x="1081" d="M629.191 617.529l52.338-52.338-515.413-515.413h-52.338v52.338l515.413 515.413zM833.991 960c-14.222 0-29.013-5.689-39.822-16.498l-104.107-104.107 213.333-213.333 104.107 104.107c22.187 22.187 22.187 58.027 0 80.213l-133.12 133.12c-11.378 11.378-25.6 16.498-40.391 16.498zM629.191 778.524l-629.191-629.191v-213.333h213.333l629.191 629.191-213.333 213.333z" />
<glyph unicode="&#xe911;" glyph-name="plus" d="M1024 374.857h-438.857v-438.857h-146.286v438.857h-438.857v146.286h438.857v438.857h146.286v-438.857h438.857v-146.286z" />
<glyph unicode="&#xe912;" d="M768 960v-1024h256v1024h-256z" />
<glyph unicode="&#xe913;" d="M512 960v-1024h256v1024h-256z" />
<glyph unicode="&#xe914;" d="M256 960v-1024h256v1024h-256z" />
<glyph unicode="&#xe915;" d="M0 960v-1024h256v1024h-256z" />
<glyph unicode="&#xe916;" glyph-name="search" d="M711.111 305.778h-44.942l-15.929 15.36c55.751 64.853 89.316 149.049 89.316 240.64 0 204.231-165.547 369.778-369.778 369.778s-369.778-165.547-369.778-369.778c0-204.231 165.547-369.778 369.778-369.778 91.591 0 175.787 33.564 240.64 89.316l15.36-15.929v-44.942l284.444-283.876 84.764 84.764-283.876 284.444zM369.778 305.778c-141.653 0-256 114.347-256 256s114.347 256 256 256c141.653 0 256-114.347 256-256s-114.347-256-256-256z" />
<glyph unicode="&#xe917;" glyph-name="shild" horiz-adv-x="838" d="M418.909 960l-418.909-186.182v-279.273c0-258.327 178.735-499.898 418.909-558.545 240.175 58.647 418.909 300.218 418.909 558.545v279.273l-418.909 186.182zM744.727 494.545c0-210.385-138.705-404.48-325.818-462.196-187.113 57.716-325.818 251.811-325.818 462.196v218.764l325.818 144.756 325.818-144.756v-218.764zM205.265 467.084l-65.629-65.629 186.182-186.182 372.364 372.364-65.629 66.095-306.735-306.735-120.553 120.087z" />
<glyph unicode="&#xe918;" glyph-name="validation" d="M995.556 960l-9.102-1.707-303.787-117.76-341.333 119.467-320.853-108.089c-11.947-3.982-20.48-14.222-20.48-27.307v-860.16c0-15.929 12.516-28.444 28.444-28.444l9.102 1.707 303.787 117.76 341.333-119.467 320.853 108.089c11.947 3.982 20.48 14.222 20.48 27.307v860.16c0 15.929-12.516 28.444-28.444 28.444zM398.222 819.484l227.556-79.644v-663.324l-227.556 79.644v663.324zM113.778 763.164l170.667 57.458v-665.6l-170.667-65.991v674.133zM910.222 132.836l-170.667-57.458v665.031l170.667 65.991v-673.564z" />
<glyph unicode="&#xe919;" glyph-name="warning" horiz-adv-x="922" d="M409.6 294.4h102.4v-102.4h-102.4v102.4zM409.6 704h102.4v-307.2h-102.4v307.2zM460.8 841.759l341.007-196.879v-393.759l-341.007-196.879-341.005 196.879v393.759l341.005 196.879zM904.207 704l-443.407 256-443.405-256v-512l443.405-256 443.407 256v512z" />
<glyph unicode="&#xe91a;" horiz-adv-x="1365" d="M682.667 960c-563.2 0-1024-460.8-1024-1024s460.8-1024 1024-1024c563.2 0 1024 460.8 1024 1024s-460.8 1024-1024 1024zM682.667-832c-426.667 0-768 341.333-768 768s341.333 768 768 768c426.667 0 768-341.333 768-768s-341.333-768-768-768z" />
<glyph unicode="&#xe91b;" horiz-adv-x="1365" d="M682.667 704c-426.667 0-768-341.333-768-768s341.333-768 768-768c426.667 0 768 341.333 768 768s-341.333 768-768 768zM682.667-576c-281.6 0-512 230.4-512 512s230.4 512 512 512c281.6 0 512-230.4 512-512s-230.4-512-512-512z" />
<glyph unicode="&#xe91c;" horiz-adv-x="1365" d="M682.667 448c-281.6 0-512-230.4-512-512s230.4-512 512-512c281.6 0 512 230.4 512 512s-230.4 512-512 512zM682.667-320c-145.067 0-256 110.933-256 256s110.933 256 256 256c145.067 0 256-110.933 256-256s-110.933-256-256-256z" />
<glyph unicode="&#xe91d;" horiz-adv-x="1365" d="M682.667-320c141.385 0 256 114.611 256 256s-114.615 256-256 256c-141.385 0-256-114.611-256-256s114.615-256 256-256z" />
</font>
</defs>
</svg>
