<svg width="20" height="19" viewBox="0 0 20 19" fill="none" xmlns="http://www.w3.org/2000/svg">
<path d="M17 5H15C14.4 5 14 5.4 14 6C14 6.6 14.4 7 15 7H17V13H2V7H2.8C3.4 7 3.8 6.6 3.8 6C3.8 5.4 3.4 5 2.8 5H2C0.9 5 0 5.9 0 7V17C0 18.1 0.9 19 2 19H17C18.1 19 19 18.1 19 17V7C19 5.9 18.1 5 17 5ZM2 17V15H17V17H2Z" fill="#8DC045"/>
<path d="M19 0H11C9.3 0 8 1.3 8 3V8.6L6.7 7.3C6.3 6.9 5.7 6.9 5.3 7.3C4.9 7.7 4.9 8.3 5.3 8.7L8.3 11.7C8.7 12.1 9.3 12.1 9.7 11.7L12.7 8.7C13.1 8.3 13.1 7.7 12.7 7.3C12.3 6.9 11.7 6.9 11.3 7.3L10 8.6V3C10 2.4 10.4 2 11 2H19C19.6 2 20 1.6 20 1C20 0.4 19.6 0 19 0Z" fill="#8DC045"/>
</svg>
