<svg width="16" height="17" viewBox="0 0 16 17" fill="none" xmlns="http://www.w3.org/2000/svg">
<path fill-rule="evenodd" clip-rule="evenodd" d="M4.5856 7.50301C4.56423 7.70795 4.55328 7.916 4.55328 8.12659C4.55328 8.33391 4.56389 8.53874 4.58461 8.74058H11.9571V10.9245H5.25184C6.25243 12.796 8.2255 14.0693 10.4959 14.0693C12.0492 14.0693 13.461 13.4749 14.5202 12.4992L15.9998 14.1056C14.5532 15.4381 12.6185 16.2532 10.4959 16.2532C6.99096 16.2532 4.00421 14.0343 2.86383 10.9245H0V8.74058H2.39218C2.37704 8.5379 2.36933 8.33315 2.36933 8.12659C2.36933 7.91678 2.37729 7.70882 2.3929 7.50301H0V5.31907H2.86736C4.01037 2.21438 6.99459 0 10.4959 0C12.6185 0 14.5531 0.815056 15.9998 2.14761L14.5202 3.75395C13.461 2.77829 12.0492 2.18394 10.4959 2.18394C8.2294 2.18394 6.25919 3.45288 5.25699 5.31907H11.9571V7.50301H4.5856Z" fill="#AEAEAE"/>
</svg>
