<svg width="40" height="40" viewBox="0 0 40 40" fill="none" xmlns="http://www.w3.org/2000/svg">
<path d="M20 39.9316C31.0457 39.9316 40 30.9926 40 19.9658C40 8.939 31.0457 0 20 0C8.95431 0 0 8.939 0 19.9658C0 30.9926 8.95431 39.9316 20 39.9316Z" fill="#D8EBBA"/>
<path d="M39.9315 19.9658C39.9315 17.3675 39.4521 14.8376 38.4932 12.5812C32.3973 16 28.8356 24.3419 19.9315 23.453C11.7123 22.5641 4.17808 21.0598 0 21.4017C0.684932 31.7949 9.38356 40 19.9315 40C31.0274 39.8632 39.9315 30.9743 39.9315 19.9658Z" fill="#ADD47D"/>
<path d="M39.5896 23.7948C28.9046 30.4957 8.69917 20.7863 0.0690308 21.3333C0.753962 31.7264 9.45259 39.9316 20.0005 39.9316C29.7266 39.8632 37.8088 32.9572 39.5896 23.7948Z" fill="#8DC045"/>
<path d="M37.8767 28.8547C32.3973 30.2222 26.1644 28.0342 20 28.0342C15.2055 28.0342 8.2192 28.9231 2.73975 30.0855C6.2329 35.9658 12.6028 39.9316 19.9315 39.9316C27.8082 39.8632 34.5891 35.4188 37.8767 28.8547Z" fill="#627E51"/>
</svg>
