<svg width="20" height="20" viewBox="0 0 20 20" fill="none" xmlns="http://www.w3.org/2000/svg">
<path d="M19 15V10C19.6 9 20 7.8 20 6.6C20 2.9 17.1 0 13.5 0C9.8 0 6.7 3.1 7 7H2C0.9 7 0 7.9 0 9V18C0 19.1 0.9 20 2 20H17C18.1 20 19 19.1 19 18V15ZM13.5 2C16 2 18 4 18 6.5C18 8.9 16 11 13.5 11C11 11 9 8.9 9 6.5C9 4 11 2 13.5 2ZM7.5 9C7.7 9.4 7.8 9.8 8.1 10.1C9.3 11.9 11.3 13 13.5 13C14.8 13 16 12.6 17 12V14H2V9H7.5ZM2 18V16H17V18H2Z" fill="#8DC045"/>
<path d="M11.6 8.7C12 9.1 12.7 9.1 13.1 8.7L15.8 5.7C16.2 5.3 16.1 4.7 15.7 4.3C15.3 3.9 14.7 4 14.3 4.4L12.4 6.6L12 6.2C11.6 5.8 11 5.7 10.6 6.1C10.2 6.5 10.1 7.1 10.5 7.5L11.6 8.7Z" fill="#8DC045"/>
</svg>
