<svg width="32" height="32" viewBox="0 0 32 32" fill="none" xmlns="http://www.w3.org/2000/svg">
<path d="M15.9554 32.0549C24.7674 32.0549 31.9109 24.8792 31.9109 16.0274C31.9109 7.17573 24.7674 0 15.9554 0C7.14349 0 0 7.17573 0 16.0274C0 24.8792 7.14349 32.0549 15.9554 32.0549Z" fill="white" fill-opacity="0.4"/>
<path d="M31.8562 16.0274C31.8562 13.9417 31.4737 11.9108 30.7088 10.0995C25.8456 12.8439 23.0042 19.5403 15.9008 18.8268C9.34377 18.1132 3.33316 16.9057 0 17.1801C0.546419 25.5232 7.48594 32.1098 15.9008 32.1098C24.7528 32 31.8562 24.8645 31.8562 16.0274Z" fill="white" fill-opacity="0.6"/>
<path d="M31.5834 19.1012C23.0593 24.4803 6.93993 16.6861 0.0550537 17.1252C0.601473 25.4683 7.54099 32.0549 15.9558 32.0549C23.715 32 30.1627 26.4563 31.5834 19.1012Z" fill="white" fill-opacity="0.8"/>
<path d="M30.217 23.1629C25.8456 24.2607 20.8732 22.5043 15.9554 22.5043C12.1305 22.5043 6.55702 23.2178 2.18567 24.1509C4.97241 28.8713 10.0541 32.0549 15.9008 32.0549C22.1846 32 27.5942 28.4322 30.217 23.1629Z" fill="white"/>
</svg>
