<svg width="64" height="18" viewBox="0 0 64 18" fill="none" xmlns="http://www.w3.org/2000/svg">
<path d="M0.72467 0.958801H12.7459V4.08745H4.16711V7.32587H11.653V10.5643H4.16711V13.9674H12.8005V17.096H0.72467V0.958801Z" fill="white"/>
<path d="M17.8276 0.958801H25.095C27.1167 0.958801 28.7013 1.50769 29.7395 2.60546C30.6138 3.48367 31.1056 4.74611 31.1056 6.33787C31.1056 8.91763 29.7395 10.5643 27.7178 11.3327L31.5973 17.096H27.4992L24.0568 11.9365H21.3793V17.096H17.8276V0.958801ZM24.8764 8.80786C26.5703 8.80786 27.5538 7.87475 27.5538 6.50254C27.5538 4.96566 26.5156 4.19722 24.8217 4.19722H21.3247V8.80786H24.8764Z" fill="white"/>
<path d="M38.7555 4.25215H33.8923V1.01373H47.061V4.25215H42.1979V17.0961H38.7008V4.25215H38.7555Z" fill="white"/>
<path d="M49.356 9.02744C49.356 4.47169 52.7438 0.684387 57.6615 0.684387C60.6668 0.684387 62.3607 1.83705 63.8361 3.31904L61.7597 5.73413C60.5576 4.58147 59.4647 3.92281 57.6615 3.92281C54.9841 3.92281 53.0716 6.17324 53.0716 8.97255C53.0716 11.717 54.9841 14.0223 57.6615 14.0223C59.4647 14.0223 60.6122 13.3087 61.8143 12.1561L64.0546 14.5712C62.4154 16.3276 60.6122 17.3156 57.5522 17.3156C52.7984 17.3705 49.356 13.693 49.356 9.02744Z" fill="white"/>
</svg>
